<svg width="288" height="245" viewBox="0 0 288 245" fill="none" xmlns="http://www.w3.org/2000/svg">
<g filter="url(#filter0_d_1612_122)">
<rect x="14" y="10" width="260" height="217" fill="#152549"/>
</g>
<path d="M70.541 38.4043V35.6016C70.541 35.2174 70.4661 34.8561 70.3164 34.5176C70.1732 34.1725 69.9746 33.873 69.7207 33.6191C69.4668 33.3652 69.1673 33.1667 68.8223 33.0234C68.4837 32.8737 68.1224 32.7988 67.7383 32.7988C67.3542 32.7988 66.9896 32.8737 66.6445 33.0234C66.306 33.1667 66.0098 33.3652 65.7559 33.6191C65.502 33.873 65.3001 34.1725 65.1504 34.5176C65.0072 34.8561 64.9355 35.2174 64.9355 35.6016V38.4043H70.541ZM73.3438 44H70.541V41.1973H64.9355V44H62.1426V35.6016C62.1426 34.8268 62.2891 34.1009 62.582 33.4238C62.875 32.7402 63.2721 32.1445 63.7734 31.6367C64.2812 31.1289 64.8737 30.7285 65.5508 30.4355C66.2344 30.1426 66.9635 29.9961 67.7383 29.9961C68.513 29.9961 69.2389 30.1426 69.916 30.4355C70.5996 30.7285 71.1953 31.1289 71.7031 31.6367C72.2109 32.1445 72.6113 32.7402 72.9043 33.4238C73.1973 34.1009 73.3438 34.8268 73.3438 35.6016V44ZM86.9961 36.998C86.9961 37.6426 86.9115 38.2643 86.7422 38.8633C86.5794 39.4557 86.3451 40.0124 86.0391 40.5332C85.7331 41.0475 85.3685 41.5195 84.9453 41.9492C84.5221 42.3724 84.0501 42.737 83.5293 43.043C83.0085 43.349 82.4486 43.5866 81.8496 43.7559C81.2572 43.9186 80.6387 44 79.9941 44H75.7754V29.9961H79.9941C80.6387 29.9961 81.2572 30.0807 81.8496 30.25C82.4486 30.4128 83.0085 30.6471 83.5293 30.9531C84.0501 31.2591 84.5221 31.627 84.9453 32.0566C85.3685 32.4798 85.7331 32.9518 86.0391 33.4727C86.3451 33.987 86.5794 34.5436 86.7422 35.1426C86.9115 35.735 86.9961 36.3535 86.9961 36.998ZM84.1934 36.998C84.1934 36.4186 84.0827 35.875 83.8613 35.3672C83.6465 34.8594 83.347 34.4167 82.9629 34.0391C82.5853 33.6549 82.1393 33.3522 81.625 33.1309C81.1172 32.9095 80.5736 32.7988 79.9941 32.7988H78.5977V41.1973H79.9941C80.5736 41.1973 81.1172 41.0898 81.625 40.875C82.1393 40.6536 82.5853 40.3542 82.9629 39.9766C83.347 39.5924 83.6465 39.1465 83.8613 38.6387C84.0827 38.1243 84.1934 37.5775 84.1934 36.998ZM102.758 44H99.9648V34C99.9648 33.8047 99.9258 33.6224 99.8477 33.4531C99.776 33.2839 99.6751 33.1374 99.5449 33.0137C99.4212 32.8835 99.2747 32.7826 99.1055 32.7109C98.9362 32.6393 98.7539 32.6035 98.5586 32.6035C98.3633 32.6035 98.181 32.6393 98.0117 32.7109C97.8424 32.7826 97.6927 32.8835 97.5625 33.0137C97.4388 33.1374 97.3411 33.2839 97.2695 33.4531C97.1979 33.6224 97.1621 33.8047 97.1621 34V44H94.3594V34C94.3594 33.8047 94.3236 33.6224 94.252 33.4531C94.1803 33.2839 94.0794 33.1374 93.9492 33.0137C93.8255 32.8835 93.679 32.7826 93.5098 32.7109C93.3405 32.6393 93.1582 32.6035 92.9629 32.6035C92.7676 32.6035 92.5853 32.6393 92.416 32.7109C92.2467 32.7826 92.097 32.8835 91.9668 33.0137C91.8431 33.1374 91.7454 33.2839 91.6738 33.4531C91.6022 33.6224 91.5664 33.8047 91.5664 34V44H88.7637V34C88.7637 33.4206 88.8711 32.877 89.0859 32.3691C89.3073 31.8548 89.6068 31.4089 89.9844 31.0312C90.3685 30.6471 90.8145 30.3477 91.3223 30.1328C91.8366 29.9115 92.3835 29.8008 92.9629 29.8008C93.4837 29.8008 93.985 29.8952 94.4668 30.084C94.9486 30.2663 95.3815 30.5332 95.7656 30.8848C96.1497 30.5332 96.5794 30.2663 97.0547 30.084C97.5365 29.8952 98.0378 29.8008 98.5586 29.8008C99.138 29.8008 99.6816 29.9115 100.189 30.1328C100.704 30.3477 101.15 30.6471 101.527 31.0312C101.911 31.4089 102.211 31.8548 102.426 32.3691C102.647 32.877 102.758 33.4206 102.758 34V44ZM108.07 44H105.268V29.9961H108.07V44ZM109.857 34.1953C109.857 33.6159 109.968 33.0723 110.189 32.5645C110.411 32.0566 110.71 31.6139 111.088 31.2363C111.472 30.8522 111.918 30.5495 112.426 30.3281C112.934 30.1068 113.477 29.9961 114.057 29.9961H120.482V32.7988H114.057C113.861 32.7988 113.679 32.8346 113.51 32.9062C113.34 32.9779 113.191 33.0788 113.061 33.209C112.937 33.3327 112.839 33.4792 112.768 33.6484C112.696 33.8177 112.66 34 112.66 34.1953C112.66 34.3906 112.696 34.5762 112.768 34.752C112.839 34.9212 112.937 35.071 113.061 35.2012C113.191 35.3249 113.34 35.4225 113.51 35.4941C113.679 35.5658 113.861 35.6016 114.057 35.6016H116.859C117.439 35.6016 117.982 35.7122 118.49 35.9336C119.005 36.1484 119.451 36.4479 119.828 36.832C120.212 37.2096 120.512 37.6556 120.727 38.1699C120.948 38.6777 121.059 39.2214 121.059 39.8008C121.059 40.3802 120.948 40.9238 120.727 41.4316C120.512 41.9395 120.212 42.3854 119.828 42.7695C119.451 43.1471 119.005 43.4466 118.49 43.668C117.982 43.8893 117.439 44 116.859 44H110.639V41.1973H116.859C117.055 41.1973 117.237 41.1615 117.406 41.0898C117.576 41.0182 117.722 40.9206 117.846 40.7969C117.976 40.6667 118.077 40.5169 118.148 40.3477C118.22 40.1784 118.256 39.9961 118.256 39.8008C118.256 39.6055 118.22 39.4232 118.148 39.2539C118.077 39.0846 117.976 38.9382 117.846 38.8145C117.722 38.6842 117.576 38.5833 117.406 38.5117C117.237 38.4401 117.055 38.4043 116.859 38.4043H114.057C113.477 38.4043 112.934 38.2936 112.426 38.0723C111.918 37.8509 111.472 37.5514 111.088 37.1738C110.71 36.7897 110.411 36.3438 110.189 35.8359C109.968 35.3216 109.857 34.7747 109.857 34.1953ZM122.084 34.1953C122.084 33.6159 122.195 33.0723 122.416 32.5645C122.637 32.0566 122.937 31.6139 123.314 31.2363C123.699 30.8522 124.145 30.5495 124.652 30.3281C125.16 30.1068 125.704 29.9961 126.283 29.9961H132.709V32.7988H126.283C126.088 32.7988 125.906 32.8346 125.736 32.9062C125.567 32.9779 125.417 33.0788 125.287 33.209C125.163 33.3327 125.066 33.4792 124.994 33.6484C124.923 33.8177 124.887 34 124.887 34.1953C124.887 34.3906 124.923 34.5762 124.994 34.752C125.066 34.9212 125.163 35.071 125.287 35.2012C125.417 35.3249 125.567 35.4225 125.736 35.4941C125.906 35.5658 126.088 35.6016 126.283 35.6016H129.086C129.665 35.6016 130.209 35.7122 130.717 35.9336C131.231 36.1484 131.677 36.4479 132.055 36.832C132.439 37.2096 132.738 37.6556 132.953 38.1699C133.174 38.6777 133.285 39.2214 133.285 39.8008C133.285 40.3802 133.174 40.9238 132.953 41.4316C132.738 41.9395 132.439 42.3854 132.055 42.7695C131.677 43.1471 131.231 43.4466 130.717 43.668C130.209 43.8893 129.665 44 129.086 44H122.865V41.1973H129.086C129.281 41.1973 129.464 41.1615 129.633 41.0898C129.802 41.0182 129.949 40.9206 130.072 40.7969C130.202 40.6667 130.303 40.5169 130.375 40.3477C130.447 40.1784 130.482 39.9961 130.482 39.8008C130.482 39.6055 130.447 39.4232 130.375 39.2539C130.303 39.0846 130.202 38.9382 130.072 38.8145C129.949 38.6842 129.802 38.5833 129.633 38.5117C129.464 38.4401 129.281 38.4043 129.086 38.4043H126.283C125.704 38.4043 125.16 38.2936 124.652 38.0723C124.145 37.8509 123.699 37.5514 123.314 37.1738C122.937 36.7897 122.637 36.3438 122.416 35.8359C122.195 35.3216 122.084 34.7747 122.084 34.1953ZM137.934 44H135.131V29.9961H137.934V44ZM154.262 37.0566C154.262 37.7207 154.174 38.362 153.998 38.9805C153.829 39.5924 153.588 40.1686 153.275 40.709C152.963 41.2428 152.585 41.7311 152.143 42.1738C151.7 42.6165 151.212 42.9974 150.678 43.3164C150.144 43.6289 149.568 43.8698 148.949 44.0391C148.331 44.2148 147.689 44.3027 147.025 44.3027C146.361 44.3027 145.72 44.2148 145.102 44.0391C144.49 43.8698 143.913 43.6289 143.373 43.3164C142.839 42.9974 142.351 42.6165 141.908 42.1738C141.465 41.7311 141.085 41.2428 140.766 40.709C140.453 40.1686 140.209 39.5924 140.033 38.9805C139.864 38.362 139.779 37.7207 139.779 37.0566C139.779 36.3926 139.864 35.7513 140.033 35.1328C140.209 34.5143 140.453 33.9382 140.766 33.4043C141.085 32.8704 141.465 32.3822 141.908 31.9395C142.351 31.4967 142.839 31.1191 143.373 30.8066C143.913 30.4941 144.49 30.2533 145.102 30.084C145.72 29.9082 146.361 29.8203 147.025 29.8203C147.689 29.8203 148.331 29.9082 148.949 30.084C149.568 30.2533 150.144 30.4941 150.678 30.8066C151.212 31.1191 151.7 31.4967 152.143 31.9395C152.585 32.3822 152.963 32.8704 153.275 33.4043C153.588 33.9382 153.829 34.5143 153.998 35.1328C154.174 35.7513 154.262 36.3926 154.262 37.0566ZM151.479 37.0566C151.479 36.4447 151.361 35.8685 151.127 35.3281C150.893 34.7812 150.574 34.3092 150.17 33.9121C149.773 33.5085 149.301 33.1895 148.754 32.9551C148.214 32.7207 147.637 32.6035 147.025 32.6035C146.407 32.6035 145.827 32.7207 145.287 32.9551C144.747 33.1895 144.275 33.5085 143.871 33.9121C143.467 34.3092 143.148 34.7812 142.914 35.3281C142.68 35.8685 142.562 36.4447 142.562 37.0566C142.562 37.6686 142.68 38.2448 142.914 38.7852C143.148 39.319 143.467 39.7878 143.871 40.1914C144.275 40.5951 144.747 40.9141 145.287 41.1484C145.827 41.3828 146.407 41.5 147.025 41.5C147.637 41.5 148.214 41.3828 148.754 41.1484C149.301 40.9141 149.773 40.5951 150.17 40.1914C150.574 39.7878 150.893 39.319 151.127 38.7852C151.361 38.2448 151.479 37.6686 151.479 37.0566ZM167.309 44H164.311L158.91 34.7812V44H156.107V29.9961H159.105L164.506 39.2246V29.9961H167.309V44ZM189.242 37.0566C189.242 37.7207 189.154 38.362 188.979 38.9805C188.809 39.5924 188.568 40.1686 188.256 40.709C187.943 41.2428 187.566 41.7311 187.123 42.1738C186.68 42.6165 186.192 42.9974 185.658 43.3164C185.124 43.6289 184.548 43.8698 183.93 44.0391C183.311 44.2148 182.67 44.3027 182.006 44.3027C181.342 44.3027 180.701 44.2148 180.082 44.0391C179.47 43.8698 178.894 43.6289 178.354 43.3164C177.82 42.9974 177.331 42.6165 176.889 42.1738C176.446 41.7311 176.065 41.2428 175.746 40.709C175.434 40.1686 175.189 39.5924 175.014 38.9805C174.844 38.362 174.76 37.7207 174.76 37.0566C174.76 36.3926 174.844 35.7513 175.014 35.1328C175.189 34.5143 175.434 33.9382 175.746 33.4043C176.065 32.8704 176.446 32.3822 176.889 31.9395C177.331 31.4967 177.82 31.1191 178.354 30.8066C178.894 30.4941 179.47 30.2533 180.082 30.084C180.701 29.9082 181.342 29.8203 182.006 29.8203C182.67 29.8203 183.311 29.9082 183.93 30.084C184.548 30.2533 185.124 30.4941 185.658 30.8066C186.192 31.1191 186.68 31.4967 187.123 31.9395C187.566 32.3822 187.943 32.8704 188.256 33.4043C188.568 33.9382 188.809 34.5143 188.979 35.1328C189.154 35.7513 189.242 36.3926 189.242 37.0566ZM186.459 37.0566C186.459 36.4447 186.342 35.8685 186.107 35.3281C185.873 34.7812 185.554 34.3092 185.15 33.9121C184.753 33.5085 184.281 33.1895 183.734 32.9551C183.194 32.7207 182.618 32.6035 182.006 32.6035C181.387 32.6035 180.808 32.7207 180.268 32.9551C179.727 33.1895 179.255 33.5085 178.852 33.9121C178.448 34.3092 178.129 34.7812 177.895 35.3281C177.66 35.8685 177.543 36.4447 177.543 37.0566C177.543 37.6686 177.66 38.2448 177.895 38.7852C178.129 39.319 178.448 39.7878 178.852 40.1914C179.255 40.5951 179.727 40.9141 180.268 41.1484C180.808 41.3828 181.387 41.5 182.006 41.5C182.618 41.5 183.194 41.3828 183.734 41.1484C184.281 40.9141 184.753 40.5951 185.15 40.1914C185.554 39.7878 185.873 39.319 186.107 38.7852C186.342 38.2448 186.459 37.6686 186.459 37.0566ZM193.891 32.7988V38.4043H196.693C197.077 38.4043 197.439 38.3327 197.777 38.1895C198.116 38.0397 198.412 37.8379 198.666 37.584C198.92 37.3301 199.118 37.0339 199.262 36.6953C199.411 36.3503 199.486 35.9857 199.486 35.6016C199.486 35.2174 199.411 34.8561 199.262 34.5176C199.118 34.1725 198.92 33.873 198.666 33.6191C198.412 33.3652 198.116 33.1667 197.777 33.0234C197.439 32.8737 197.077 32.7988 196.693 32.7988H193.891ZM193.891 44H191.088V29.9961H196.693C197.208 29.9961 197.702 30.0645 198.178 30.2012C198.653 30.3314 199.096 30.5202 199.506 30.7676C199.923 31.0085 200.3 31.3014 200.639 31.6465C200.984 31.985 201.277 32.3626 201.518 32.7793C201.765 33.196 201.954 33.6419 202.084 34.1172C202.221 34.5924 202.289 35.0872 202.289 35.6016C202.289 36.3698 202.143 37.0957 201.85 37.7793C201.557 38.4564 201.156 39.0488 200.648 39.5566C200.141 40.0645 199.545 40.4648 198.861 40.7578C198.184 41.0508 197.462 41.1973 196.693 41.1973H193.891V44ZM213.539 44H203.939V29.9961H213.539V32.7988H206.742V35.6016H211.342V38.4043H206.742V41.1973H213.539V44ZM226.703 44H223.705L218.305 34.7812V44H215.502V29.9961H218.5L223.9 39.2246V29.9961H226.703V44Z" fill="white"/>
<path d="M82.1395 85.905C83.4095 84.885 84.4045 84.05 85.1245 83.4C85.8445 82.74 86.4495 82.055 86.9395 81.345C87.4395 80.625 87.6895 79.92 87.6895 79.23C87.6895 78.58 87.5295 78.07 87.2095 77.7C86.8995 77.32 86.3945 77.13 85.6945 77.13C85.0145 77.13 84.4845 77.345 84.1045 77.775C83.7345 78.195 83.5345 78.76 83.5045 79.47H82.1845C82.2245 78.35 82.5645 77.485 83.2045 76.875C83.8445 76.265 84.6695 75.96 85.6795 75.96C86.7095 75.96 87.5245 76.245 88.1245 76.815C88.7345 77.385 89.0395 78.17 89.0395 79.17C89.0395 80 88.7895 80.81 88.2895 81.6C87.7995 82.38 87.2395 83.07 86.6095 83.67C85.9795 84.26 85.1745 84.95 84.1945 85.74H89.3545V86.88H82.1395V85.905ZM90.9324 81.465C90.9324 79.745 91.2124 78.405 91.7724 77.445C92.3324 76.475 93.3124 75.99 94.7124 75.99C96.1024 75.99 97.0774 76.475 97.6374 77.445C98.1974 78.405 98.4774 79.745 98.4774 81.465C98.4774 83.215 98.1974 84.575 97.6374 85.545C97.0774 86.515 96.1024 87 94.7124 87C93.3124 87 92.3324 86.515 91.7724 85.545C91.2124 84.575 90.9324 83.215 90.9324 81.465ZM97.1274 81.465C97.1274 80.595 97.0674 79.86 96.9474 79.26C96.8374 78.65 96.6024 78.16 96.2424 77.79C95.8924 77.42 95.3824 77.235 94.7124 77.235C94.0324 77.235 93.5124 77.42 93.1524 77.79C92.8024 78.16 92.5674 78.65 92.4474 79.26C92.3374 79.86 92.2824 80.595 92.2824 81.465C92.2824 82.365 92.3374 83.12 92.4474 83.73C92.5674 84.34 92.8024 84.83 93.1524 85.2C93.5124 85.57 94.0324 85.755 94.7124 85.755C95.3824 85.755 95.8924 85.57 96.2424 85.2C96.6024 84.83 96.8374 84.34 96.9474 83.73C97.0674 83.12 97.1274 82.365 97.1274 81.465ZM100.186 85.905C101.456 84.885 102.451 84.05 103.171 83.4C103.891 82.74 104.496 82.055 104.986 81.345C105.486 80.625 105.736 79.92 105.736 79.23C105.736 78.58 105.576 78.07 105.256 77.7C104.946 77.32 104.441 77.13 103.741 77.13C103.061 77.13 102.531 77.345 102.151 77.775C101.781 78.195 101.581 78.76 101.551 79.47H100.231C100.271 78.35 100.611 77.485 101.251 76.875C101.891 76.265 102.716 75.96 103.726 75.96C104.756 75.96 105.571 76.245 106.171 76.815C106.781 77.385 107.086 78.17 107.086 79.17C107.086 80 106.836 80.81 106.336 81.6C105.846 82.38 105.286 83.07 104.656 83.67C104.026 84.26 103.221 84.95 102.241 85.74H107.401V86.88H100.186V85.905ZM108.649 84.585V83.55L113.914 76.26H115.549V83.4H117.049V84.585H115.549V87H114.199V84.585H108.649ZM114.259 77.685L110.224 83.4H114.259V77.685ZM124.338 80.925V82.08H118.353V80.925H124.338ZM126.51 85.905C127.78 84.885 128.775 84.05 129.495 83.4C130.215 82.74 130.82 82.055 131.31 81.345C131.81 80.625 132.06 79.92 132.06 79.23C132.06 78.58 131.9 78.07 131.58 77.7C131.27 77.32 130.765 77.13 130.065 77.13C129.385 77.13 128.855 77.345 128.475 77.775C128.105 78.195 127.905 78.76 127.875 79.47H126.555C126.595 78.35 126.935 77.485 127.575 76.875C128.215 76.265 129.04 75.96 130.05 75.96C131.08 75.96 131.895 76.245 132.495 76.815C133.105 77.385 133.41 78.17 133.41 79.17C133.41 80 133.16 80.81 132.66 81.6C132.17 82.38 131.61 83.07 130.98 83.67C130.35 84.26 129.545 84.95 128.565 85.74H133.725V86.88H126.51V85.905ZM142.218 77.34H136.953V80.76C137.183 80.44 137.523 80.18 137.973 79.98C138.423 79.77 138.908 79.665 139.428 79.665C140.258 79.665 140.933 79.84 141.453 80.19C141.973 80.53 142.343 80.975 142.563 81.525C142.793 82.065 142.908 82.64 142.908 83.25C142.908 83.97 142.773 84.615 142.503 85.185C142.233 85.755 141.818 86.205 141.258 86.535C140.708 86.865 140.023 87.03 139.203 87.03C138.153 87.03 137.303 86.76 136.653 86.22C136.003 85.68 135.608 84.96 135.468 84.06H136.803C136.933 84.63 137.208 85.075 137.628 85.395C138.048 85.715 138.578 85.875 139.218 85.875C140.008 85.875 140.603 85.64 141.003 85.17C141.403 84.69 141.603 84.06 141.603 83.28C141.603 82.5 141.403 81.9 141.003 81.48C140.603 81.05 140.013 80.835 139.233 80.835C138.703 80.835 138.238 80.965 137.838 81.225C137.448 81.475 137.163 81.82 136.983 82.26H135.693V76.14H142.218V77.34ZM152.261 87.105C151.571 87.105 150.951 86.985 150.401 86.745C149.861 86.495 149.436 86.155 149.126 85.725C148.816 85.285 148.656 84.78 148.646 84.21H150.101C150.151 84.7 150.351 85.115 150.701 85.455C151.061 85.785 151.581 85.95 152.261 85.95C152.911 85.95 153.421 85.79 153.791 85.47C154.171 85.14 154.361 84.72 154.361 84.21C154.361 83.81 154.251 83.485 154.031 83.235C153.811 82.985 153.536 82.795 153.206 82.665C152.876 82.535 152.431 82.395 151.871 82.245C151.181 82.065 150.626 81.885 150.206 81.705C149.796 81.525 149.441 81.245 149.141 80.865C148.851 80.475 148.706 79.955 148.706 79.305C148.706 78.735 148.851 78.23 149.141 77.79C149.431 77.35 149.836 77.01 150.356 76.77C150.886 76.53 151.491 76.41 152.171 76.41C153.151 76.41 153.951 76.655 154.571 77.145C155.201 77.635 155.556 78.285 155.636 79.095H154.136C154.086 78.695 153.876 78.345 153.506 78.045C153.136 77.735 152.646 77.58 152.036 77.58C151.466 77.58 151.001 77.73 150.641 78.03C150.281 78.32 150.101 78.73 150.101 79.26C150.101 79.64 150.206 79.95 150.416 80.19C150.636 80.43 150.901 80.615 151.211 80.745C151.531 80.865 151.976 81.005 152.546 81.165C153.236 81.355 153.791 81.545 154.211 81.735C154.631 81.915 154.991 82.2 155.291 82.59C155.591 82.97 155.741 83.49 155.741 84.15C155.741 84.66 155.606 85.14 155.336 85.59C155.066 86.04 154.666 86.405 154.136 86.685C153.606 86.965 152.981 87.105 152.261 87.105ZM157.239 81.765C157.239 80.745 157.469 79.83 157.929 79.02C158.389 78.2 159.014 77.56 159.804 77.1C160.604 76.64 161.489 76.41 162.459 76.41C163.599 76.41 164.594 76.685 165.444 77.235C166.294 77.785 166.914 78.565 167.304 79.575H165.669C165.379 78.945 164.959 78.46 164.409 78.12C163.869 77.78 163.219 77.61 162.459 77.61C161.729 77.61 161.074 77.78 160.494 78.12C159.914 78.46 159.459 78.945 159.129 79.575C158.799 80.195 158.634 80.925 158.634 81.765C158.634 82.595 158.799 83.325 159.129 83.955C159.459 84.575 159.914 85.055 160.494 85.395C161.074 85.735 161.729 85.905 162.459 85.905C163.219 85.905 163.869 85.74 164.409 85.41C164.959 85.07 165.379 84.585 165.669 83.955H167.304C166.914 84.955 166.294 85.73 165.444 86.28C164.594 86.82 163.599 87.09 162.459 87.09C161.489 87.09 160.604 86.865 159.804 86.415C159.014 85.955 158.389 85.32 157.929 84.51C157.469 83.7 157.239 82.785 157.239 81.765ZM177.391 76.545V87H176.026V82.26H170.701V87H169.336V76.545H170.701V81.135H176.026V76.545H177.391ZM184.462 87.105C183.492 87.105 182.607 86.88 181.807 86.43C181.007 85.97 180.372 85.335 179.902 84.525C179.442 83.705 179.212 82.785 179.212 81.765C179.212 80.745 179.442 79.83 179.902 79.02C180.372 78.2 181.007 77.565 181.807 77.115C182.607 76.655 183.492 76.425 184.462 76.425C185.442 76.425 186.332 76.655 187.132 77.115C187.932 77.565 188.562 78.195 189.022 79.005C189.482 79.815 189.712 80.735 189.712 81.765C189.712 82.795 189.482 83.715 189.022 84.525C188.562 85.335 187.932 85.97 187.132 86.43C186.332 86.88 185.442 87.105 184.462 87.105ZM184.462 85.92C185.192 85.92 185.847 85.75 186.427 85.41C187.017 85.07 187.477 84.585 187.807 83.955C188.147 83.325 188.317 82.595 188.317 81.765C188.317 80.925 188.147 80.195 187.807 79.575C187.477 78.945 187.022 78.46 186.442 78.12C185.862 77.78 185.202 77.61 184.462 77.61C183.722 77.61 183.062 77.78 182.482 78.12C181.902 78.46 181.442 78.945 181.102 79.575C180.772 80.195 180.607 80.925 180.607 81.765C180.607 82.595 180.772 83.325 181.102 83.955C181.442 84.585 181.902 85.07 182.482 85.41C183.072 85.75 183.732 85.92 184.462 85.92ZM196.254 87.105C195.284 87.105 194.399 86.88 193.599 86.43C192.799 85.97 192.164 85.335 191.694 84.525C191.234 83.705 191.004 82.785 191.004 81.765C191.004 80.745 191.234 79.83 191.694 79.02C192.164 78.2 192.799 77.565 193.599 77.115C194.399 76.655 195.284 76.425 196.254 76.425C197.234 76.425 198.124 76.655 198.924 77.115C199.724 77.565 200.354 78.195 200.814 79.005C201.274 79.815 201.504 80.735 201.504 81.765C201.504 82.795 201.274 83.715 200.814 84.525C200.354 85.335 199.724 85.97 198.924 86.43C198.124 86.88 197.234 87.105 196.254 87.105ZM196.254 85.92C196.984 85.92 197.639 85.75 198.219 85.41C198.809 85.07 199.269 84.585 199.599 83.955C199.939 83.325 200.109 82.595 200.109 81.765C200.109 80.925 199.939 80.195 199.599 79.575C199.269 78.945 198.814 78.46 198.234 78.12C197.654 77.78 196.994 77.61 196.254 77.61C195.514 77.61 194.854 77.78 194.274 78.12C193.694 78.46 193.234 78.945 192.894 79.575C192.564 80.195 192.399 80.925 192.399 81.765C192.399 82.595 192.564 83.325 192.894 83.955C193.234 84.585 193.694 85.07 194.274 85.41C194.864 85.75 195.524 85.92 196.254 85.92ZM204.671 85.89H208.331V87H203.306V76.545H204.671V85.89ZM80.4892 99.545L77.0842 106.055V110H75.7192V106.055L72.2992 99.545H73.8142L76.3942 104.84L78.9742 99.545H80.4892ZM83.2939 100.655V104.15H87.1039V105.275H83.2939V108.875H87.5539V110H81.9289V99.53H87.5539V100.655H83.2939ZM95.7994 107.675H91.2394L90.3994 110H88.9594L92.7394 99.605H94.3144L98.0794 110H96.6394L95.7994 107.675ZM95.4094 106.565L93.5194 101.285L91.6294 106.565H95.4094ZM105.232 110L102.742 105.725H101.092V110H99.7268V99.545H103.102C103.892 99.545 104.557 99.68 105.097 99.95C105.647 100.22 106.057 100.585 106.327 101.045C106.597 101.505 106.732 102.03 106.732 102.62C106.732 103.34 106.522 103.975 106.102 104.525C105.692 105.075 105.072 105.44 104.242 105.62L106.867 110H105.232ZM101.092 104.63H103.102C103.842 104.63 104.397 104.45 104.767 104.09C105.137 103.72 105.322 103.23 105.322 102.62C105.322 102 105.137 101.52 104.767 101.18C104.407 100.84 103.852 100.67 103.102 100.67H101.092V104.63ZM119.032 107.675H114.472L113.632 110H112.192L115.972 99.605H117.547L121.312 110H119.872L119.032 107.675ZM118.642 106.565L116.752 101.285L114.862 106.565H118.642ZM129.949 102.605C129.949 103.475 129.649 104.2 129.049 104.78C128.459 105.35 127.554 105.635 126.334 105.635H124.324V110H122.959V99.545H126.334C127.514 99.545 128.409 99.83 129.019 100.4C129.639 100.97 129.949 101.705 129.949 102.605ZM126.334 104.51C127.094 104.51 127.654 104.345 128.014 104.015C128.374 103.685 128.554 103.215 128.554 102.605C128.554 101.315 127.814 100.67 126.334 100.67H124.324V104.51H126.334ZM138.636 102.605C138.636 103.475 138.336 104.2 137.736 104.78C137.146 105.35 136.241 105.635 135.021 105.635H133.011V110H131.646V99.545H135.021C136.201 99.545 137.096 99.83 137.706 100.4C138.326 100.97 138.636 101.705 138.636 102.605ZM135.021 104.51C135.781 104.51 136.341 104.345 136.701 104.015C137.061 103.685 137.241 103.215 137.241 102.605C137.241 101.315 136.501 100.67 135.021 100.67H133.011V104.51H135.021ZM141.697 108.89H145.357V110H140.332V99.545H141.697V108.89ZM148.172 99.545V110H146.807V99.545H148.172ZM149.988 104.765C149.988 103.745 150.218 102.83 150.678 102.02C151.138 101.2 151.763 100.56 152.553 100.1C153.353 99.64 154.238 99.41 155.208 99.41C156.348 99.41 157.343 99.685 158.193 100.235C159.043 100.785 159.663 101.565 160.053 102.575H158.418C158.128 101.945 157.708 101.46 157.158 101.12C156.618 100.78 155.968 100.61 155.208 100.61C154.478 100.61 153.823 100.78 153.243 101.12C152.663 101.46 152.208 101.945 151.878 102.575C151.548 103.195 151.383 103.925 151.383 104.765C151.383 105.595 151.548 106.325 151.878 106.955C152.208 107.575 152.663 108.055 153.243 108.395C153.823 108.735 154.478 108.905 155.208 108.905C155.968 108.905 156.618 108.74 157.158 108.41C157.708 108.07 158.128 107.585 158.418 106.955H160.053C159.663 107.955 159.043 108.73 158.193 109.28C157.343 109.82 156.348 110.09 155.208 110.09C154.238 110.09 153.353 109.865 152.553 109.415C151.763 108.955 151.138 108.32 150.678 107.51C150.218 106.7 149.988 105.785 149.988 104.765ZM168.265 107.675H163.705L162.865 110H161.425L165.205 99.605H166.78L170.545 110H169.105L168.265 107.675ZM167.875 106.565L165.985 101.285L164.095 106.565H167.875ZM178.628 99.545V100.655H175.778V110H174.413V100.655H171.548V99.545H178.628ZM181.673 99.545V110H180.308V99.545H181.673ZM188.739 110.105C187.769 110.105 186.884 109.88 186.084 109.43C185.284 108.97 184.649 108.335 184.179 107.525C183.719 106.705 183.489 105.785 183.489 104.765C183.489 103.745 183.719 102.83 184.179 102.02C184.649 101.2 185.284 100.565 186.084 100.115C186.884 99.655 187.769 99.425 188.739 99.425C189.719 99.425 190.609 99.655 191.409 100.115C192.209 100.565 192.839 101.195 193.299 102.005C193.759 102.815 193.989 103.735 193.989 104.765C193.989 105.795 193.759 106.715 193.299 107.525C192.839 108.335 192.209 108.97 191.409 109.43C190.609 109.88 189.719 110.105 188.739 110.105ZM188.739 108.92C189.469 108.92 190.124 108.75 190.704 108.41C191.294 108.07 191.754 107.585 192.084 106.955C192.424 106.325 192.594 105.595 192.594 104.765C192.594 103.925 192.424 103.195 192.084 102.575C191.754 101.945 191.299 101.46 190.719 101.12C190.139 100.78 189.479 100.61 188.739 100.61C187.999 100.61 187.339 100.78 186.759 101.12C186.179 101.46 185.719 101.945 185.379 102.575C185.049 103.195 184.884 103.925 184.884 104.765C184.884 105.595 185.049 106.325 185.379 106.955C185.719 107.585 186.179 108.07 186.759 108.41C187.349 108.75 188.009 108.92 188.739 108.92ZM204.011 110H202.646L197.156 101.675V110H195.791V99.53H197.156L202.646 107.84V99.53H204.011V110ZM209.653 110.105C208.963 110.105 208.343 109.985 207.793 109.745C207.253 109.495 206.828 109.155 206.518 108.725C206.208 108.285 206.048 107.78 206.038 107.21H207.493C207.543 107.7 207.743 108.115 208.093 108.455C208.453 108.785 208.973 108.95 209.653 108.95C210.303 108.95 210.813 108.79 211.183 108.47C211.563 108.14 211.753 107.72 211.753 107.21C211.753 106.81 211.643 106.485 211.423 106.235C211.203 105.985 210.928 105.795 210.598 105.665C210.268 105.535 209.823 105.395 209.263 105.245C208.573 105.065 208.018 104.885 207.598 104.705C207.188 104.525 206.833 104.245 206.533 103.865C206.243 103.475 206.098 102.955 206.098 102.305C206.098 101.735 206.243 101.23 206.533 100.79C206.823 100.35 207.228 100.01 207.748 99.77C208.278 99.53 208.883 99.41 209.563 99.41C210.543 99.41 211.343 99.655 211.963 100.145C212.593 100.635 212.948 101.285 213.028 102.095H211.528C211.478 101.695 211.268 101.345 210.898 101.045C210.528 100.735 210.038 100.58 209.428 100.58C208.858 100.58 208.393 100.73 208.033 101.03C207.673 101.32 207.493 101.73 207.493 102.26C207.493 102.64 207.598 102.95 207.808 103.19C208.028 103.43 208.293 103.615 208.603 103.745C208.923 103.865 209.368 104.005 209.938 104.165C210.628 104.355 211.183 104.545 211.603 104.735C212.023 104.915 212.383 105.2 212.683 105.59C212.983 105.97 213.133 106.49 213.133 107.15C213.133 107.66 212.998 108.14 212.728 108.59C212.458 109.04 212.058 109.405 211.528 109.685C210.998 109.965 210.373 110.105 209.653 110.105ZM114.531 133H113.166L107.676 124.675V133H106.311V122.53H107.676L113.166 130.84V122.53H114.531V133ZM121.598 133.105C120.628 133.105 119.743 132.88 118.943 132.43C118.143 131.97 117.508 131.335 117.038 130.525C116.578 129.705 116.348 128.785 116.348 127.765C116.348 126.745 116.578 125.83 117.038 125.02C117.508 124.2 118.143 123.565 118.943 123.115C119.743 122.655 120.628 122.425 121.598 122.425C122.578 122.425 123.468 122.655 124.268 123.115C125.068 123.565 125.698 124.195 126.158 125.005C126.618 125.815 126.848 126.735 126.848 127.765C126.848 128.795 126.618 129.715 126.158 130.525C125.698 131.335 125.068 131.97 124.268 132.43C123.468 132.88 122.578 133.105 121.598 133.105ZM121.598 131.92C122.328 131.92 122.983 131.75 123.563 131.41C124.153 131.07 124.613 130.585 124.943 129.955C125.283 129.325 125.453 128.595 125.453 127.765C125.453 126.925 125.283 126.195 124.943 125.575C124.613 124.945 124.158 124.46 123.578 124.12C122.998 123.78 122.338 123.61 121.598 123.61C120.858 123.61 120.198 123.78 119.618 124.12C119.038 124.46 118.578 124.945 118.238 125.575C117.908 126.195 117.743 126.925 117.743 127.765C117.743 128.595 117.908 129.325 118.238 129.955C118.578 130.585 119.038 131.07 119.618 131.41C120.208 131.75 120.868 131.92 121.598 131.92ZM141.79 122.545L138.76 133H137.23L134.8 124.585L132.28 133L130.765 133.015L127.84 122.545H129.295L131.575 131.41L134.095 122.545H135.625L138.025 131.38L140.32 122.545H141.79ZM152.023 133.105C151.053 133.105 150.168 132.88 149.368 132.43C148.568 131.97 147.933 131.335 147.463 130.525C147.003 129.705 146.773 128.785 146.773 127.765C146.773 126.745 147.003 125.83 147.463 125.02C147.933 124.2 148.568 123.565 149.368 123.115C150.168 122.655 151.053 122.425 152.023 122.425C153.003 122.425 153.893 122.655 154.693 123.115C155.493 123.565 156.123 124.195 156.583 125.005C157.043 125.815 157.273 126.735 157.273 127.765C157.273 128.795 157.043 129.715 156.583 130.525C156.123 131.335 155.493 131.97 154.693 132.43C153.893 132.88 153.003 133.105 152.023 133.105ZM152.023 131.92C152.753 131.92 153.408 131.75 153.988 131.41C154.578 131.07 155.038 130.585 155.368 129.955C155.708 129.325 155.878 128.595 155.878 127.765C155.878 126.925 155.708 126.195 155.368 125.575C155.038 124.945 154.583 124.46 154.003 124.12C153.423 123.78 152.763 123.61 152.023 123.61C151.283 123.61 150.623 123.78 150.043 124.12C149.463 124.46 149.003 124.945 148.663 125.575C148.333 126.195 148.168 126.925 148.168 127.765C148.168 128.595 148.333 129.325 148.663 129.955C149.003 130.585 149.463 131.07 150.043 131.41C150.633 131.75 151.293 131.92 152.023 131.92ZM166.065 125.605C166.065 126.475 165.765 127.2 165.165 127.78C164.575 128.35 163.67 128.635 162.45 128.635H160.44V133H159.075V122.545H162.45C163.63 122.545 164.525 122.83 165.135 123.4C165.755 123.97 166.065 124.705 166.065 125.605ZM162.45 127.51C163.21 127.51 163.77 127.345 164.13 127.015C164.49 126.685 164.67 126.215 164.67 125.605C164.67 124.315 163.93 123.67 162.45 123.67H160.44V127.51H162.45ZM169.126 123.655V127.15H172.936V128.275H169.126V131.875H173.386V133H167.761V122.53H173.386V123.655H169.126ZM183.672 133H182.307L176.817 124.675V133H175.452V122.53H176.817L182.307 130.84V122.53H183.672V133Z" fill="white"/>
<rect x="92" y="151" width="106" height="31" fill="#AC8B15"/>
<path d="M118.027 168.512H114.883L114.379 170H112.231L115.279 161.576H117.655L120.703 170H118.531L118.027 168.512ZM117.499 166.928L116.455 163.844L115.423 166.928H117.499ZM123.683 164.252C123.883 163.94 124.159 163.688 124.511 163.496C124.863 163.304 125.275 163.208 125.747 163.208C126.299 163.208 126.799 163.348 127.247 163.628C127.695 163.908 128.047 164.308 128.303 164.828C128.567 165.348 128.699 165.952 128.699 166.64C128.699 167.328 128.567 167.936 128.303 168.464C128.047 168.984 127.695 169.388 127.247 169.676C126.799 169.956 126.299 170.096 125.747 170.096C125.283 170.096 124.871 170 124.511 169.808C124.159 169.616 123.883 169.368 123.683 169.064V173.192H121.631V163.304H123.683V164.252ZM126.611 166.64C126.611 166.128 126.467 165.728 126.179 165.44C125.899 165.144 125.551 164.996 125.135 164.996C124.727 164.996 124.379 165.144 124.091 165.44C123.811 165.736 123.671 166.14 123.671 166.652C123.671 167.164 123.811 167.568 124.091 167.864C124.379 168.16 124.727 168.308 125.135 168.308C125.543 168.308 125.891 168.16 126.179 167.864C126.467 167.56 126.611 167.152 126.611 166.64ZM131.827 164.252C132.027 163.94 132.303 163.688 132.655 163.496C133.007 163.304 133.419 163.208 133.891 163.208C134.443 163.208 134.943 163.348 135.391 163.628C135.839 163.908 136.191 164.308 136.447 164.828C136.711 165.348 136.843 165.952 136.843 166.64C136.843 167.328 136.711 167.936 136.447 168.464C136.191 168.984 135.839 169.388 135.391 169.676C134.943 169.956 134.443 170.096 133.891 170.096C133.427 170.096 133.015 170 132.655 169.808C132.303 169.616 132.027 169.368 131.827 169.064V173.192H129.775V163.304H131.827V164.252ZM134.755 166.64C134.755 166.128 134.611 165.728 134.323 165.44C134.043 165.144 133.695 164.996 133.279 164.996C132.871 164.996 132.523 165.144 132.235 165.44C131.955 165.736 131.815 166.14 131.815 166.652C131.815 167.164 131.955 167.568 132.235 167.864C132.523 168.16 132.871 168.308 133.279 168.308C133.687 168.308 134.035 168.16 134.323 167.864C134.611 167.56 134.755 167.152 134.755 166.64ZM139.972 161.12V170H137.92V161.12H139.972ZM148.299 163.304L144.099 173.18H141.891L143.427 169.772L140.703 163.304H142.995L144.543 167.492L146.079 163.304H148.299ZM155.664 163.232C156.448 163.232 157.072 163.488 157.536 164C158.008 164.504 158.244 165.2 158.244 166.088V170H156.204V166.364C156.204 165.916 156.088 165.568 155.856 165.32C155.624 165.072 155.312 164.948 154.92 164.948C154.528 164.948 154.216 165.072 153.984 165.32C153.752 165.568 153.636 165.916 153.636 166.364V170H151.584V163.304H153.636V164.192C153.844 163.896 154.124 163.664 154.476 163.496C154.828 163.32 155.224 163.232 155.664 163.232ZM162.718 170.096C162.062 170.096 161.47 169.956 160.942 169.676C160.422 169.396 160.01 168.996 159.706 168.476C159.41 167.956 159.262 167.348 159.262 166.652C159.262 165.964 159.414 165.36 159.718 164.84C160.022 164.312 160.438 163.908 160.966 163.628C161.494 163.348 162.086 163.208 162.742 163.208C163.398 163.208 163.99 163.348 164.518 163.628C165.046 163.908 165.462 164.312 165.766 164.84C166.07 165.36 166.222 165.964 166.222 166.652C166.222 167.34 166.066 167.948 165.754 168.476C165.45 168.996 165.03 169.396 164.494 169.676C163.966 169.956 163.374 170.096 162.718 170.096ZM162.718 168.32C163.11 168.32 163.442 168.176 163.714 167.888C163.994 167.6 164.134 167.188 164.134 166.652C164.134 166.116 163.998 165.704 163.726 165.416C163.462 165.128 163.134 164.984 162.742 164.984C162.342 164.984 162.01 165.128 161.746 165.416C161.482 165.696 161.35 166.108 161.35 166.652C161.35 167.188 161.478 167.6 161.734 167.888C161.998 168.176 162.326 168.32 162.718 168.32ZM176.922 163.304L175.11 170H172.842L171.786 165.656L170.694 170H168.438L166.614 163.304H168.666L169.614 168.092L170.742 163.304H172.914L174.054 168.068L174.99 163.304H176.922Z" fill="white"/>
<defs>
<filter id="filter0_d_1612_122" x="0" y="0" width="288" height="245" filterUnits="userSpaceOnUse" color-interpolation-filters="sRGB">
<feFlood flood-opacity="0" result="BackgroundImageFix"/>
<feColorMatrix in="SourceAlpha" type="matrix" values="0 0 0 0 0 0 0 0 0 0 0 0 0 0 0 0 0 0 127 0" result="hardAlpha"/>
<feMorphology radius="6" operator="dilate" in="SourceAlpha" result="effect1_dropShadow_1612_122"/>
<feOffset dy="4"/>
<feGaussianBlur stdDeviation="4"/>
<feComposite in2="hardAlpha" operator="out"/>
<feColorMatrix type="matrix" values="0 0 0 0 0 0 0 0 0 0 0 0 0 0 0 0 0 0 0.25 0"/>
<feBlend mode="normal" in2="BackgroundImageFix" result="effect1_dropShadow_1612_122"/>
<feBlend mode="normal" in="SourceGraphic" in2="effect1_dropShadow_1612_122" result="shape"/>
</filter>
</defs>
</svg>
